<?xml version="1.0" encoding="UTF-8"?>
<!-- Generator: Adobe Illustrator 21.1.0, SVG Export Plug-In . SVG Version: 6.00 Build 0)  -->
<svg xmlns="http://www.w3.org/2000/svg" xmlns:xlink="http://www.w3.org/1999/xlink" id="Layer_1" x="0px" y="0px" viewBox="0 0 28.1 24.5" style="enable-background:new 0 0 28.1 24.5;" xml:space="preserve">
<style type="text/css">
	.st0{fill:#090F12;}
</style>
<g id="Layer_2">
	<g id="Layer_1-2">
		<path class="st0" d="M6.3,3c1.8,0,3.2,1.4,3.2,3.1c0,0,0,0,0,0c0,1.8-1.4,3.2-3.2,3.2C4.5,9.4,3.1,8,3.1,6.2C3.1,4.4,4.6,3,6.3,3    C6.3,3,6.3,3,6.3,3 M6.3,0C2.9,0,0,2.7,0,6.2c0,0,0,0,0,0c0,3.5,2.9,6.2,6.3,6.2c0,0,0,0,0,0c3.5,0,6.3-2.7,6.3-6.2c0,0,0,0,0,0    C12.6,2.7,9.8,0,6.3,0C6.3,0,6.3,0,6.3,0z"></path>
		<path class="st0" d="M21.8,15.2c1.7,0,3.1,1.5,3.1,3.2c0,1.7-1.5,3.1-3.2,3.1c-1.7,0-3.1-1.4-3.1-3.1    C18.6,16.6,20.1,15.2,21.8,15.2C21.8,15.2,21.8,15.2,21.8,15.2 M21.8,12.2c-3.4,0.1-6.1,2.9-6.1,6.3s2.9,6.1,6.3,6.1    c3.4-0.1,6.1-2.8,6.1-6.2C28.1,14.9,25.3,12.1,21.8,12.2C21.8,12.2,21.8,12.2,21.8,12.2z"></path>
		<polygon class="st0" points="20.6,0 3.6,24.5 7.3,24.5 24.3,0   "></polygon>
	</g>
</g>
</svg>
